<svg width="512" height="512" viewBox="0 0 512 512" fill="none" xmlns="http://www.w3.org/2000/svg">
<g clip-path="url(#clip0_654_8)">
<path d="M437.333 187.595V373.333C437.333 381.82 433.962 389.96 427.961 395.961C421.96 401.962 413.82 405.333 405.333 405.333H106.667C98.1798 405.333 90.0405 401.962 84.0393 395.961C78.0381 389.96 74.6667 381.82 74.6667 373.333V187.595L207.712 300.395C221.202 311.833 238.314 318.111 256 318.111C273.686 318.111 290.798 311.833 304.288 300.395L437.333 187.595ZM405.333 106.667C409.233 106.671 413.099 107.379 416.747 108.757C421.99 110.755 426.613 114.103 430.144 118.464C432.058 120.809 433.63 123.413 434.816 126.197C436.203 129.483 437.056 133.045 437.269 136.789L437.333 138.667V149.333L276.768 286.293C271.242 291.007 264.277 293.701 257.017 293.931C249.758 294.162 242.635 291.916 236.821 287.563L235.232 286.283L74.6667 149.333V138.667C74.6537 132.744 76.2903 126.934 79.3932 121.889C82.4961 116.843 86.9427 112.762 92.2347 110.101C96.7091 107.839 101.653 106.663 106.667 106.667H405.333Z" fill="#1F1F1F"/>
</g>
<defs>
<clipPath id="clip0_654_8">
<rect width="512" height="512" fill="white"/>
</clipPath>
</defs>
</svg>
