<svg width="512" height="512" viewBox="0 0 512 512" fill="none" xmlns="http://www.w3.org/2000/svg">
<path fill-rule="evenodd" clip-rule="evenodd" d="M256 0C114.56 0 0 117.458 0 262.475C0 378.621 73.28 476.721 175.04 511.499C187.84 513.795 192.64 505.921 192.64 499.031C192.64 492.797 192.32 472.127 192.32 450.145C128 462.284 111.36 434.068 106.24 419.304C103.36 411.758 90.88 388.463 80 382.23C71.04 377.308 58.24 365.169 79.68 364.841C99.84 364.512 114.24 383.87 119.04 391.744C142.08 431.444 178.88 420.288 193.6 413.398C195.84 396.338 202.56 384.854 209.92 378.292C152.96 371.731 93.44 349.092 93.44 248.695C93.44 220.151 103.36 196.528 119.68 178.155C117.12 171.593 108.16 144.689 122.24 108.599C122.24 108.599 143.68 101.709 192.64 135.503C213.12 129.597 234.88 126.644 256.64 126.644C278.4 126.644 300.16 129.597 320.64 135.503C369.6 101.381 391.04 108.599 391.04 108.599C405.12 144.689 396.16 171.593 393.6 178.155C409.92 196.528 419.84 219.823 419.84 248.695C419.84 349.42 360 371.731 303.04 378.292C312.32 386.495 320.32 402.243 320.32 426.85C320.32 461.956 320 490.172 320 499.031C320 505.921 324.8 514.123 337.6 511.499C438.72 476.721 512 378.292 512 262.475C512 117.458 397.44 0 256 0Z" fill="#1F1F1F"/>
</svg>
