<svg width="512" height="428" viewBox="0 0 512 428" fill="none" xmlns="http://www.w3.org/2000/svg">
<path d="M477 1.85998L13.32 181.29C13.0442 181.396 12.7767 181.523 12.52 181.67C8.76004 183.8 -17.48 199.85 19.52 214.24L19.9 214.38L130.31 250.05C131.152 250.324 132.044 250.41 132.924 250.303C133.803 250.196 134.648 249.898 135.4 249.43L409.25 78.57C409.921 78.1509 410.669 77.8688 411.45 77.74C415.26 77.11 426.23 75.93 419.29 84.74C411.44 94.74 224.39 262.36 203.63 280.95C202.433 282.025 201.692 283.517 201.56 285.12L192.5 393.12C192.499 394.22 192.754 395.305 193.245 396.289C193.737 397.273 194.45 398.13 195.33 398.79C196.578 399.576 198.046 399.94 199.517 399.829C200.988 399.717 202.385 399.136 203.5 398.17L269.1 339.54C270.136 338.614 271.458 338.071 272.846 338C274.234 337.929 275.605 338.335 276.73 339.15L391.18 422.25L391.55 422.5C394.32 424.21 424.24 441.62 432.88 402.74L511.88 27.09C511.99 25.9 513.06 12.82 503.71 5.08998C493.89 -2.99002 479.99 1.08998 477.9 1.52998C477.592 1.6158 477.291 1.72616 477 1.85998Z" fill="#1F1F1F"/>
</svg>
